# xmcd
#
# Track frame offsets: 
#        150
#        19791
#        50266
#        71631
#
# Disc length: 1185 seconds
#
# Revision: 0
# Processed by: cddbd v1.5.2PL0 Copyright (c) Steve Scherf et al.
# Submitted via: ExactAudioCopy v1.0b3
#
DISCID=2d049f04
DTITLE=Sonic Beat - I Can Fly
DYEAR=1900
DGENRE=
TTITLE0=I Can Fly (Single Mix)
TTITLE1=I Can Fly (Maxi Mix)
TTITLE2=1400 Feet
TTITLE3=I Can Fly (Blue Ocean Mix)
EXTD=
EXTT0=
EXTT1=
EXTT2=
EXTT3=
PLAYORDER=
